<svg xmlns="http://www.w3.org/2000/svg" width="1041" height="296" viewBox="0 0 1041 296">
  <defs>
    <style>
      .cls-1 {
        mix-blend-mode: darken;
      }

      .cls-2, .cls-3 {
        fill: #7c5e38;
      }

      .cls-3, .cls-6 {
        fill-rule: evenodd;
      }

      .cls-4 {
        fill: #57412a;
      }

      .cls-5 {
        fill: #ffcc48;
      }
    </style>
  </defs>
  <g id="Группа_1" data-name="Группа 1" class="cls-1">
    <rect id="Прямоугольник_1" data-name="Прямоугольник 1" class="cls-2" x="9" width="254" height="30"/>
    <rect id="Прямоугольник_2" data-name="Прямоугольник 2" class="cls-2" x="21" y="18" width="242" height="242"/>
    <path id="Прямоугольник_9" data-name="Прямоугольник 9" class="cls-3" d="M25.018,281.992a300.782,300.782,0,0,0,31.258-1.508c4.245-.454,8.775,1.662,7.123,5.638-0.441,1.175-.973,2.37-1.518,3.555-2.076,4.016-5.639,6.916-8.829,6.984C43.676,296.94,34.335,296.989,25,297a6,6,0,0,1-6-6v-3A6.014,6.014,0,0,1,25.018,281.992Z"/>
    <path id="Прямоугольник_9-2" data-name="Прямоугольник 9" class="cls-3" d="M259.982,281.992a300.777,300.777,0,0,1-31.258-1.508c-4.245-.454-8.775,1.662-7.123,5.638,0.441,1.175.973,2.37,1.518,3.555,2.076,4.016,5.64,6.916,8.829,6.984,9.376,0.279,18.717.328,28.052,0.337a6,6,0,0,0,6-6v-3A6.014,6.014,0,0,0,259.982,281.992Z"/>
    <rect id="Прямоугольник_3" data-name="Прямоугольник 3" class="cls-4" x="9" y="-1" width="260" height="30"/>
    <circle id="Эллипс_1" data-name="Эллипс 1" class="cls-5" cx="205.5" cy="220.5" r="8.5"/>
    <rect id="Прямоугольник_7" data-name="Прямоугольник 7" class="cls-5" x="97" y="122" width="18" height="40" rx="9" ry="9"/>
    <circle id="Эллипс_1-2" data-name="Эллипс 1" class="cls-5" cx="205.5" cy="141.5" r="8.5"/>
    <circle id="Эллипс_1-3" data-name="Эллипс 1" class="cls-5" cx="205.5" cy="63.5" r="8.5"/>
    <rect id="Прямоугольник_6" data-name="Прямоугольник 6" class="cls-4" x="156" y="177" width="98" height="8"/>
    <rect id="Прямоугольник_5" data-name="Прямоугольник 5" class="cls-4" x="156" y="99" width="99" height="8"/>
    <path id="Шкапъ_" data-name="Шкапъ " class="cls-6" d="M250.043-.594V254.285H159.321V-0.594H124.438V254.285H33.716V-0.594H-1.167V289.168H284.926V-0.594H250.043ZM462.237-.566h-44.3q-40.651,51.71-81.3,103.419V-0.566H301.75V289.2h34.883v-129.9l22.073-28.073L427.355,289.2h34.882L381.17,102.644Q421.7,51.04,462.237-.566ZM577.186-.594H542.192q-31.471,144.88-62.942,289.762h34.883l13.534-62.286,36.934,10.9c19.436,6.907,33.682,22.576,37.966,40.771l0.446,2.107,1.842,8.511h34.882Q608.462,144.286,577.186-.594Zm-1.479,205.3-40.617-12Q547.362,136.2,559.633,79.692q14.044,65.07,28.088,130.139A96.7,96.7,0,0,0,575.707,204.711ZM656.75-.631V289.131h34.883V34.252h90.722V289.131h34.882V-0.631H656.75ZM978.807,113.608l-62.523-18.46V-0.625H834.25q3.789,17.455,7.576,34.883H881.4V289.165h76.491L958.98,289c47.4-6.028,83.8-46.38,82.88-91.838C1041.11,160.1,1015.77,126.5,978.807,113.608ZM955.6,254.282H916.284V131.524L967.7,146.677c23.064,8.218,38.829,28.757,39.289,51.193C1007.55,225.427,985.058,250.012,955.6,254.282Z"/>
  </g>
</svg>
